<?xml version="1.0" encoding="utf-8"?>
<svg xmlns="http://www.w3.org/2000/svg" data-name="Capa 2" id="Capa_2" viewBox="0 0 420 189">
  <defs>
    <style>.cls-1{fill:#fef7eb;}.cls-2,.cls-8{fill:#ef8b63;}.cls-3,.cls-4,.cls-9{fill:#fff;}.cls-4{opacity:0.15;}.cls-13,.cls-15,.cls-5{fill:none;}.cls-11,.cls-12,.cls-14,.cls-5,.cls-8,.cls-9{stroke:#272b36;}.cls-11,.cls-12,.cls-13,.cls-14,.cls-15,.cls-5,.cls-8,.cls-9{stroke-miterlimit:10;}.cls-11,.cls-12,.cls-13,.cls-14,.cls-5,.cls-8,.cls-9{stroke-width:0.4px;}.cls-6{fill:#0e104f;}.cls-7{fill:#fa3369;}.cls-10,.cls-12{fill:#33918b;}.cls-11,.cls-17{fill:#215b77;}.cls-13{stroke:#fff;}.cls-14,.cls-16{fill:#f7bf5c;}.cls-15{stroke:#215b77;stroke-width:0.75px;}</style>
  </defs>
  <rect class="cls-1" height="189" width="420"/>
  <rect class="cls-2" height="57" transform="translate(-51.4 95.8) rotate(-36.2)" width="41.7" x="100.1" y="98"/>
  <rect class="cls-3" height="51.06" transform="translate(-51.4 95.8) rotate(-36.2)" width="36" x="102.9" y="101"/>
  <polygon class="cls-4" points="87.3 115.8 120.9 161.8 127 157.4 111.4 98.2 87.3 115.8"/>
  <rect class="cls-5" height="57" transform="translate(-51.4 95.8) rotate(-36.2)" width="41.7" x="100.1" y="98"/>
  <polygon class="cls-6" points="112.2 101.4 107.4 108 99.6 110.5 94.4 103.3 106.9 94.2 112.2 101.4"/>
  <rect class="cls-5" height="51.06" transform="translate(-51.4 95.8) rotate(-36.2)" width="36" x="102.9" y="101"/>
  <polygon class="cls-7" points="104.2 123.2 105.3 118.7 106.3 118.8 105.2 123.4 105 124.4 103.9 124.2 101.5 123.8 101.8 122.9 104.2 123.2"/>
  <polygon class="cls-7" points="112.2 134.3 113.4 129.7 114.4 129.8 113.3 134.4 113 135.4 112 135.2 109.6 134.9 109.8 133.9 112.2 134.3"/>
  <polygon class="cls-7" points="120.3 145.3 121.4 140.7 122.4 140.9 121.3 145.4 121.1 146.4 120 146.3 117.6 145.9 117.9 144.9 120.3 145.3"/>
  <path class="cls-5" d="M109.1,118.5a1.2,1.2,0,0,1-.1-.8.7.7,0,0,1,.6-.5l.4.3c.6.3,1.4-.2,1.3-.8s-.1-.6,0-.8.9.2,1.4.1.6-.9.6-1.5l.2-.4c.3-.4.9.2,1.5.2s.7-.6.8-1.1.1-1.1.6-1.3,1.2.3,1.7.1.1-1.8.8-2.5l1.3.9a3.8,3.8,0,0,0,.3-1.8c.5-.2,1,.5,1.4.2a.8.8,0,0,0,.2-.5l.2-1.4"/>
  <path class="cls-5" d="M117.7,130a1.9,1.9,0,0,1-.1-.8c.1-.2.4-.5.7-.4l.4.2a.8.8,0,0,0,1.2-.8c0-.2-.1-.5,0-.7s.9.2,1.5.1.5-.9.5-1.5.1-.4.2-.5.9.3,1.5.3.7-.6.8-1.1.1-1.1.6-1.3,1.2.3,1.7.1.2-1.9.8-2.5l1.3.9a3.1,3.1,0,0,0,.3-1.9c.5-.1,1,.6,1.4.3a.8.8,0,0,0,.2-.5l.2-1.4"/>
  <path class="cls-5" d="M125.9,140.7a1.4,1.4,0,0,1,0-.9c0-.2.3-.4.6-.4l.4.2a.9.9,0,0,0,1.3-.7c-.1-.3-.2-.6,0-.8s.9.2,1.4.1.6-.9.6-1.5,0-.3.1-.4,1,.2,1.5.2.7-.6.8-1.1.2-1.1.6-1.3,1.2.3,1.7.1.2-1.8.8-2.5l1.3.9a2.9,2.9,0,0,0,.3-1.8c.5-.2,1,.5,1.4.2s.2-.3.2-.5l.2-1.4"/>
  <path class="cls-8" d="M153.2,40h0a1.8,1.8,0,0,1,1.8,1.8v7.9a0,0,0,0,1,0,0h-3.5a0,0,0,0,1,0,0V41.7A1.8,1.8,0,0,1,153.2,40Z" transform="translate(311.8 61.6) rotate(169.8)"/>
  <path class="cls-8" d="M137.1,34.8h3.5a0,0,0,0,1,0,0v7.9a1.8,1.8,0,0,1-1.8,1.8h0a1.8,1.8,0,0,1-1.8-1.8V34.8A0,0,0,0,1,137.1,34.8Z" transform="translate(79.4 -92) rotate(49.8)"/>
  <circle class="cls-2" cx="150.6" cy="29.5" r="15.8"/>
  <circle class="cls-9" cx="150.6" cy="29.5" r="13.9"/>
  <path class="cls-10" d="M151.5,17.7h2.2a0,0,0,0,1,0,0V29.1a1.1,1.1,0,0,1-1.1,1.1h0a1.1,1.1,0,0,1-1.1-1.1V17.7A0,0,0,0,1,151.5,17.7Z" transform="translate(288.1 98) rotate(-160.2)"/>
  <path class="cls-10" d="M149.9,30.5l1.3-1.8-4.4-3.3a1.2,1.2,0,0,0-1.6.3h0a1.1,1.1,0,0,0,.3,1.5Z"/>
  <circle class="cls-11" cx="150.6" cy="29.5" r="1.7"/>
  <path class="cls-12" d="M105.6,56.5a14,14,0,0,0-.6,19.7,13.8,13.8,0,0,0,9.7,4.3,14.2,14.2,0,0,0,8.5-2.5l7.3,7.7a2,2,0,0,0,2.8.1,2,2,0,0,0,.1-2.9l-7.3-7.7a13.9,13.9,0,0,0-10.6-22.5A13.6,13.6,0,0,0,105.6,56.5ZM123,59.1a10.9,10.9,0,0,1,.9,13.8,9.1,9.1,0,0,1-1.3,1.6L121,75.7a10.2,10.2,0,0,1-6.2,1.7,10,10,0,0,1-7.5-3.4,10.4,10.4,0,0,1-3-7.4,10.8,10.8,0,0,1,3.4-7.9,10.5,10.5,0,0,1,7.7-2.9,9.9,9.9,0,0,1,4.2.9A13.1,13.1,0,0,1,123,59.1Z"/>
  <path class="cls-9" d="M115.4,55.8a9.9,9.9,0,0,1,4.2.9,13.1,13.1,0,0,1,3.4,2.4,10.9,10.9,0,0,1,.9,13.8,9.1,9.1,0,0,1-1.3,1.6L121,75.7a10.2,10.2,0,0,1-6.2,1.7,10,10,0,0,1-7.5-3.4,10.4,10.4,0,0,1-3-7.4,10.8,10.8,0,0,1,3.4-7.9A10.5,10.5,0,0,1,115.4,55.8Z"/>
  <rect class="cls-3" height="36.7" transform="translate(3.6 -15.6) rotate(3)" width="26.5" x="285.3" y="41.8"/>
  <rect class="cls-11" height="13.32" transform="translate(3 -15.7) rotate(3)" width="26.5" x="285.9" y="41.8"/>
  <path class="cls-5" d="M290.9,44.6a3.3,3.3,0,0,1-3-3.4,3.2,3.2,0,0,1,3.4-2.9,3.1,3.1,0,0,1,3,3.3"/>
  <path class="cls-5" d="M299.3,45a3.2,3.2,0,0,1-3-3.3,3.2,3.2,0,1,1,6.3.3"/>
  <path class="cls-5" d="M307.7,45.5a3.2,3.2,0,0,1-3-3.4,3.2,3.2,0,0,1,3.3-3,3.2,3.2,0,0,1,3,3.4"/>
  <polyline class="cls-13" points="290.3 51.4 290.5 46.1 294.6 51.6 294.8 46.3"/>
  <polyline class="cls-13" points="302.3 46.7 304.7 52.1 307.7 47"/>
  <ellipse class="cls-13" cx="299.1" cy="49.2" rx="2.6" ry="2.3" transform="translate(234.2 345.3) rotate(-87)"/>
  <ellipse class="cls-5" cx="302.8" cy="69.5" rx="3.7" ry="3.6" transform="translate(217.4 368.2) rotate(-87)"/>
  <ellipse class="cls-5" cx="303.1" cy="63.2" rx="2.6" ry="2.6" transform="translate(224 362.6) rotate(-87)"/>
  <path class="cls-5" d="M296.5,72.7l-7-.4,5.7-5.8c1.9-2,1-5.7-1.4-6h-.2a3.8,3.8,0,0,0-3.7,3.9"/>
  <polyline class="cls-5" points="304.4 78.9 284.3 77.8 286.3 41.2 312.8 42.6 311 76.3"/>
  <path class="cls-11" d="M177.6,162l3.1-2.1-2.2-5.7-3.7.5a11,11,0,0,0-2.1-2.2l.7-3.7-5.7-2.5-2.2,3a15.8,15.8,0,0,0-3.1-.1l-2-3-5.8,2.2.5,3.7a11,11,0,0,0-2.2,2.1l-3.7-.7-2.4,5.6,2.9,2.3a15.1,15.1,0,0,0-.1,3l-3,2.1,2.2,5.8,3.7-.5a14.5,14.5,0,0,0,2.1,2.2l-.7,3.6,5.7,2.5,2.2-2.9a15,15,0,0,0,3,0l2.1,3.1,5.8-2.2-.5-3.7a14.5,14.5,0,0,0,2.2-2.1l3.6.7,2.5-5.7-2.9-2.2A16,16,0,0,0,177.6,162Zm-14,9.7a8.5,8.5,0,1,1,8.5-8.5A8.5,8.5,0,0,1,163.6,171.7Z"/>
  <rect class="cls-9" height="50.73" rx="1.4" transform="translate(149.6 -171.7) rotate(40.9)" width="38.4" x="285.8" y="89.3"/>
  <path class="cls-14" d="M295.1,83.9h16.8a1.2,1.2,0,0,1,1.2,1.2v49.6a0,0,0,0,1,0,0H293.9a0,0,0,0,1,0,0V85.1A1.2,1.2,0,0,1,295.1,83.9Z" transform="translate(145.7 -172.1) rotate(40.9)"/>
  <rect class="cls-9" height="50.73" rx="1.4" transform="translate(149.1 -170.6) rotate(40.9)" width="38.4" x="284" y="89.2"/>
  <rect class="cls-2" height="50.73" rx="2.9" transform="translate(148.7 -168.9) rotate(40.9)" width="38.4" x="281.6" y="89.5"/>
  <path class="cls-4" d="M326.6,103.8l-33,38-.2.3,3,2.6a2.9,2.9,0,0,0,4.1-.3l29.4-33.9a2.9,2.9,0,0,0-.3-4.1Z"/>
  <path class="cls-5" d="M297,89.9a2.5,2.5,0,0,1-.2-3.3,2.3,2.3,0,0,1,3.2-.2,2.2,2.2,0,0,1,.3,3.2"/>
  <path class="cls-5" d="M292.3,95.3a2.3,2.3,0,1,1,3.2-.2"/>
  <path class="cls-5" d="M287.7,100.5a2.3,2.3,0,0,1-.2-3.3,2.3,2.3,0,0,1,3.2-.2,2.2,2.2,0,0,1,.2,3.2"/>
  <path class="cls-5" d="M273.4,117.2a2.2,2.2,0,0,1-.3-3.2,2.4,2.4,0,0,1,3.3-.3,2.5,2.5,0,0,1,.2,3.3"/>
  <rect class="cls-9" height="2.88" rx="1.4" transform="translate(152.1 -162.6) rotate(40.9)" width="16.2" x="285.9" y="121.2"/>
  <rect class="cls-9" height="2.88" rx="1.4" transform="translate(153.6 -159.9) rotate(40.9)" width="16.2" x="283.1" y="124.5"/>
  <rect class="cls-5" height="50.73" rx="2.9" transform="translate(148.7 -168.9) rotate(40.9)" width="38.4" x="281.6" y="89.5"/>
  <path class="cls-5" d="M282.8,106.3a2.5,2.5,0,0,1-.2-3.3,2.3,2.3,0,0,1,3.2-.2,2.2,2.2,0,0,1,.3,3.2"/>
  <path class="cls-5" d="M278.1,111.7a2.3,2.3,0,1,1,3.2-.2"/>
  <path class="cls-9" d="M245.7,159.3c0,11.6,14.6,21,32.6,21a46.1,46.1,0,0,0,18.4-3.7l7.3,3.7-2.8-6c6-3.8,9.7-9.1,9.7-15,0-11.6-14.6-21-32.6-21S245.7,147.7,245.7,159.3Z"/>
  <path class="cls-15" d="M258,163.2a2.8,2.8,0,0,1,3.6-1.4c1.3.6,2.2,2.3,3.6,2.3s2.9-2.8,4.7-2.6,2.4,2.4,4,2.5,2.2-1.7,3.4-2.2a2.2,2.2,0,0,1,2.1.1c1.1.6,1.7,2.2,3,2.4s2-.7,2.8-1.4,1.9-1.5,2.9-1,1.2,1.5,2,2,2.1.1,3-.5a6.7,6.7,0,0,1,2.9-1.5,2.6,2.6,0,0,1,2.6,2.1"/>
  <path class="cls-15" d="M258,155.7a2.8,2.8,0,0,1,3.6-1.4c1.3.7,2.2,2.4,3.6,2.3s2.9-2.8,4.7-2.6,2.4,2.5,4,2.5,2.2-1.6,3.4-2.2a2.6,2.6,0,0,1,2.1.1c1.1.6,1.7,2.2,3,2.4s2-.6,2.8-1.4,1.9-1.4,2.9-1,1.2,1.5,2,2,2.1.1,3-.5a6.7,6.7,0,0,1,2.9-1.5,2.6,2.6,0,0,1,2.6,2.1"/>
  <path class="cls-16" d="M210,15.9a78.6,78.6,0,1,0,78.6,78.6A78.6,78.6,0,0,0,210,15.9ZM210,160a65.5,65.5,0,1,1,65.5-65.5A65.5,65.5,0,0,1,210,160Z"/>
  <path class="cls-3" d="M210,29a65.5,65.5,0,1,0,65.5,65.5A65.5,65.5,0,0,0,210,29Zm0,117.9a52.4,52.4,0,1,1,52.4-52.4A52.3,52.3,0,0,1,210,146.9Z"/>
  <path class="cls-16" d="M210,42.1a52.4,52.4,0,1,0,52.4,52.4A52.3,52.3,0,0,0,210,42.1Zm0,91.7a39.3,39.3,0,1,1,39.3-39.3A39.3,39.3,0,0,1,210,133.8Z"/>
  <path class="cls-3" d="M210,55.2a39.3,39.3,0,1,0,39.3,39.3A39.3,39.3,0,0,0,210,55.2Zm0,65.5a26.2,26.2,0,1,1,26.2-26.2A26.2,26.2,0,0,1,210,120.7Z"/>
  <path class="cls-16" d="M210,68.3a26.2,26.2,0,1,0,26.2,26.2A26.2,26.2,0,0,0,210,68.3Zm0,39.3a13.1,13.1,0,1,1,13.1-13.1A13.1,13.1,0,0,1,210,107.6Z"/>
  <circle class="cls-3" cx="210" cy="94.5" r="13.1" transform="matrix(0.92, -0.38, 0.38, 0.92, -20.18, 87.56)"/>
  <polygon class="cls-8" points="273.1 30 274.1 17.2 289.6 1.7 288.6 14.5 273.1 30"/>
  <polygon class="cls-8" points="274.8 31.7 287.6 30.7 303.1 15.2 290.3 16.2 274.8 31.7"/>
  <path class="cls-4" d="M197.3,172a78.6,78.6,0,0,1,0-155,82.7,82.7,0,0,0,0,155Z"/>
  <path class="cls-5" d="M210,15.9a78.6,78.6,0,1,0,78.6,78.6A78.6,78.6,0,0,0,210,15.9ZM210,160a65.5,65.5,0,1,1,65.5-65.5A65.5,65.5,0,0,1,210,160Z"/>
  <path class="cls-5" d="M210,29a65.5,65.5,0,1,0,65.5,65.5A65.5,65.5,0,0,0,210,29Zm0,117.9a52.4,52.4,0,1,1,52.4-52.4A52.3,52.3,0,0,1,210,146.9Z"/>
  <path class="cls-5" d="M210,42.1a52.4,52.4,0,1,0,52.4,52.4A52.3,52.3,0,0,0,210,42.1Zm0,91.7a39.3,39.3,0,1,1,39.3-39.3A39.3,39.3,0,0,1,210,133.8Z"/>
  <path class="cls-5" d="M210,55.2a39.3,39.3,0,1,0,39.3,39.3A39.3,39.3,0,0,0,210,55.2Zm0,65.5a26.2,26.2,0,1,1,26.2-26.2A26.2,26.2,0,0,1,210,120.7Z"/>
  <path class="cls-5" d="M210,68.3a26.2,26.2,0,1,0,26.2,26.2A26.2,26.2,0,0,0,210,68.3Zm0,39.3a13.1,13.1,0,1,1,13.1-13.1A13.1,13.1,0,0,1,210,107.6Z"/>
  <circle class="cls-5" cx="210" cy="94.5" r="13.1" transform="matrix(0.92, -0.38, 0.38, 0.92, -20.18, 87.56)"/>
  <path class="cls-17" d="M210,96a1.5,1.5,0,0,1-1.1-.4,1.6,1.6,0,0,1,0-2.2l81.1-81a1.5,1.5,0,1,1,2.1,2.1l-81,81.1A1.5,1.5,0,0,1,210,96Z"/>
  <path class="cls-5" d="M321.9,142.1a29.7,29.7,0,0,1,25.3-19.2c2.6-.1,6.2,1.1,5.8,3.7s-4.5,2.7-6.4.9-3.4-7.7-1.9-11.6,4.4-7.1,7.2-10.1c4.5-5,8.9-10.3,10.9-16.6s1-14.2-4.2-18.4-9.3-3.9-14.4-4.1-10.4-.1-15-2.4-7.9-7.9-5.9-12.5c1.2-3,4.2-4.8,6.7-6.7s5.1-4.6,4.8-7.8-5.1-5.3-6.7-2.6"/>
  <path class="cls-5" d="M328.9,135.9a37.2,37.2,0,0,0-7.6,24c.3,4.7,1.6,9.6,5.1,12.6s5.8,2.5,7.3.2a6.2,6.2,0,0,0,.6-3c0-3.2-.5-6.6.4-9.7s4-6,7.2-5.2,4.6,6,7.2,9.1,9.5,3.6,12.7.1,2.8-7.4,2.4-11.3-1.5-7.9-.8-11.8,3.9-7.8,7.8-7.6,5,3,3.5,5-4.8.4-5.1-1.9,1.5-4.4,3.7-5.2,4.5-.9,6.8-1.2,4.7-.9,6.1-2.7,1.1-7.4.1-11.1-.5-8.9,3.2-9.9"/>
  <path class="cls-5" d="M330.2,48.7c6.2-1.8,9.9-8.2,11.9-14.4.8-2.7,1.4-6-.5-8.2a2.2,2.2,0,0,0-1.5-.8c-1.3-.1-2.1,1.6-1.6,2.8s3.8,2.5,5.6,1.2,2.7-3.4,3.3-5.6,1-4.2-.3-5.7"/>
  <path class="cls-5" d="M104.5,86.9c-4.4-1.1-7.4-4.9-9.8-8.8s-3.8-6.8-4-10.6c-.4-5.7,2.8-11,4.4-16.4s.9-12.7-4.3-15c-2.7,1.9-.9,6.8,2.3,7.5s6.5-1.4,8.3-4.2a15,15,0,0,0,1.3-13.2,17.3,17.3,0,0,0-9.3-9.5,11.4,11.4,0,0,0-7.9-.8,6.7,6.7,0,0,0-4.9,5.8"/>
  <path class="cls-5" d="M99.5,89.4a16.8,16.8,0,0,0-28.4,4.9c-2.5,6.6-.6,14.1,2.1,20.7s6.3,13,7.1,20.1A27.5,27.5,0,0,1,71,158.7a16.9,16.9,0,0,1-8.7,4.2c-7.1.7-13.9-6.3-12.9-13.4.5-3.7,2.7-6.9,4.4-10.3s2.9-7.5,1.2-10.9-9.6-4.9-12.4-.8c-1.6,2.2-1.8,5.3-3.7,7.3a6.1,6.1,0,0,1-9.1-.4,6.3,6.3,0,0,1,2.2-8.9,2.9,2.9,0,0,1-1.9,4.2A9.4,9.4,0,0,1,35,113.6"/>
  <path class="cls-5" d="M77.9,118.2l2.9,6.5a46.6,46.6,0,0,1,2.7,7.4c1,4.3.7,8.8.5,13.3s-.4,9,.9,13.3,4.6,8.2,8.9,9.2,9.6-1.6,10.2-6c.3-2-1.1-4.6-3.1-4.2s-2.2,2.8-1.1,4.1a3.9,3.9,0,0,0,4.7.7,8.3,8.3,0,0,0,3.5-3.7"/>
  <path class="cls-5" d="M32.8,73.6A30.5,30.5,0,0,1,44.2,55.4a3.3,3.3,0,0,1,1.3-.7,2.2,2.2,0,0,1,2.3,1.7,8,8,0,0,1,.1,3.1,36.3,36.3,0,0,0,.5,10.9c.3,1.5,1.2,3.5,2.8,3.2s1.8-2,2.1-3.3a17.4,17.4,0,0,1,7.5-11c.6,1,.5,2.2.7,3.4s.9,2.4,2.1,2.4a2.3,2.3,0,0,0,1.9-1,11,11,0,0,1,2.8-2.5c1.2-.6,2.9-.1,3.1,1.1s-.3,1.4-.2,2.1a2,2,0,0,0,2,1.5,5.9,5.9,0,0,0,2.6-.7c1.6,1.1.6,3.6,1.3,5.3s3.7,2.3,5.4,3.9"/>
  <path class="cls-5" d="M363.9,104.9a7.7,7.7,0,0,0,4-5.7c.2-1.4.5-3.3,1.9-3.3l1.2.2c1.4.1,2.2-1.4,2.4-2.8s-.2-2.7.4-3.9l.6-.7a4.7,4.7,0,0,1,1.7-.3c2.5-.2,3.9-3.3,3.8-5.8s-1.2-5-1.2-7.6.9-4,2.7-4.2a17.9,17.9,0,0,1,2.3.2c2.7-.1,3.6-3.7,3.4-6.4a31.2,31.2,0,0,0-2.2-9c-1-2.5-2.6-5.1-5.1-6.2s-6-.1-6.7,2.5"/>
</svg>